<svg width="142" height="126" viewBox="0 0 142 126" fill="none" xmlns="http://www.w3.org/2000/svg">
<g clip-path="url(#clip0)">
<path d="M88.9293 53.28V77.76H28.305C21.3977 77.76 15.7778 72.2693 15.7778 65.52C15.7778 58.771 21.3976 53.28 28.305 53.28H88.9293Z" fill="#F2F2F2"/>
<path d="M90.3636 78.228C90.3636 78.4858 90.2646 78.7327 90.0882 78.9149C89.9118 79.0978 89.6723 79.2 89.4234 79.2H26.5099C23.0929 79.2 19.8159 77.7967 17.3998 75.2983C14.9836 72.8006 13.6263 69.4127 13.6263 65.88C13.6263 62.3473 14.9836 58.9593 17.3998 56.4613C19.8159 53.9634 23.0929 52.56 26.5099 52.56H89.4234C89.6723 52.56 89.9118 52.6625 90.0882 52.8448C90.2646 53.0271 90.3636 53.2744 90.3636 53.5323C90.3636 53.7901 90.2646 54.0374 90.0882 54.2197C89.9118 54.4021 89.6723 54.5045 89.4234 54.5045H26.5099C23.5917 54.5045 20.7932 55.703 18.7297 57.8363C16.6663 59.9697 15.507 62.8631 15.507 65.88C15.507 68.8969 16.6663 71.7903 18.7297 73.9238C20.7932 76.0572 23.5917 77.2553 26.5099 77.2553H89.4234C89.6723 77.2553 89.9118 77.3582 90.0882 77.5404C90.2646 77.7226 90.3636 77.9702 90.3636 78.228Z" fill="#BADA55"/>
<path d="M88.7421 59.76H23.137C23.0872 59.76 23.0396 59.7221 23.0044 59.6545C22.9692 59.5871 22.9495 59.4955 22.9495 59.4C22.9495 59.3045 22.9692 59.213 23.0044 59.1455C23.0396 59.078 23.0872 59.04 23.137 59.04H88.7421C88.7916 59.04 88.8389 59.078 88.8741 59.1455C88.9092 59.213 88.9293 59.3045 88.9293 59.4C88.9293 59.4955 88.9092 59.5871 88.8741 59.6545C88.8389 59.7221 88.7916 59.76 88.7421 59.76Z" fill="#CCCCCC"/>
<path d="M88.7421 68.4H23.137C23.0872 68.4 23.0396 68.3621 23.0044 68.2945C22.9692 68.227 22.9495 68.1355 22.9495 68.04C22.9495 67.9445 22.9692 67.8529 23.0044 67.7855C23.0396 67.7179 23.0872 67.68 23.137 67.68H88.7421C88.7916 67.68 88.8389 67.7179 88.8741 67.7855C88.9092 67.8529 88.9293 67.9445 88.9293 68.04C88.9293 68.1355 88.9092 68.227 88.8741 68.2945C88.8389 68.3621 88.7916 68.4 88.7421 68.4Z" fill="#CCCCCC"/>
<path d="M88.7421 73.44H23.137C23.0872 73.44 23.0396 73.4018 23.0044 73.3349C22.9692 73.2672 22.9495 73.1758 22.9495 73.08C22.9495 72.9842 22.9692 72.8928 23.0044 72.8251C23.0396 72.7582 23.0872 72.72 23.137 72.72H88.7421C88.7916 72.72 88.8389 72.7582 88.8741 72.8251C88.9092 72.8928 88.9293 72.9842 88.9293 73.08C88.9293 73.1758 88.9092 73.2672 88.8741 73.3349C88.8389 73.4018 88.7916 73.44 88.7421 73.44Z" fill="#CCCCCC"/>
<path d="M136.263 58.6786L120.859 77.76L72.9651 39.2403C67.508 34.8515 66.5233 27.0006 70.7699 21.74C75.0162 16.4794 82.9115 15.77 88.3685 20.1589L136.263 58.6786Z" fill="#F2F2F2"/>
<path d="M122.507 78.1294C122.35 78.3238 122.124 78.4476 121.875 78.4742C121.627 78.5016 121.379 78.4282 121.185 78.2719L72.2128 38.7716C69.5529 36.6262 67.8534 33.5111 67.4881 30.1114C67.1228 26.7118 68.1215 23.306 70.2646 20.6435C72.4078 17.981 75.5196 16.2797 78.9162 15.914C82.312 15.5482 85.7142 16.548 88.3742 18.6934L137.346 58.1937C137.442 58.2712 137.523 58.3669 137.582 58.4754C137.641 58.5839 137.678 58.703 137.691 58.8259C137.705 58.9488 137.693 59.0731 137.659 59.1918C137.624 59.3104 137.566 59.4209 137.489 59.5173C137.412 59.6135 137.315 59.6935 137.207 59.7528C137.099 59.812 136.98 59.8493 136.857 59.8625C136.735 59.8757 136.61 59.8645 136.491 59.8296C136.373 59.7948 136.263 59.7369 136.167 59.6593L87.1945 20.159C86.0699 19.2511 84.7776 18.5739 83.3913 18.1662C82.005 17.7584 80.552 17.628 79.1155 17.7823C77.679 17.9368 76.287 18.373 75.019 19.066C73.7511 19.7591 72.6316 20.6955 71.7251 21.8217C70.8188 22.9478 70.1429 24.2417 69.736 25.6295C69.3292 27.0173 69.1995 28.4716 69.3543 29.9096C69.5092 31.3475 69.9454 32.7408 70.6383 34.0099C71.3311 35.2791 72.2673 36.3991 73.3925 37.306L122.365 76.806C122.559 76.963 122.683 77.1905 122.71 77.4382C122.736 77.6866 122.663 77.935 122.507 78.1294Z" fill="#CA1919"/>
<path d="M133.088 63.3181L81.8278 21.9351C81.8085 21.9197 81.7927 21.9004 81.7805 21.8788C81.769 21.857 81.7611 21.8332 81.759 21.8086C81.7561 21.7839 81.7583 21.7591 81.7654 21.7353C81.7719 21.7116 81.7834 21.6895 81.7991 21.6702C81.8149 21.6509 81.8336 21.6349 81.8558 21.623C81.8773 21.6111 81.901 21.6037 81.9254 21.6011C81.9497 21.5984 81.9748 21.6006 81.9985 21.6076C82.0222 21.6146 82.0444 21.6262 82.0638 21.6417L133.324 63.0246C133.343 63.0402 133.359 63.0593 133.371 63.0811C133.382 63.1028 133.39 63.1266 133.392 63.1512C133.395 63.1759 133.393 63.2008 133.386 63.2245C133.38 63.2483 133.368 63.2705 133.352 63.2898C133.337 63.3091 133.318 63.3251 133.296 63.3369C133.274 63.3488 133.25 63.3563 133.226 63.3589C133.201 63.3616 133.177 63.3593 133.153 63.3523C133.129 63.3453 133.107 63.3337 133.088 63.3181Z" fill="#CCCCCC"/>
<path d="M130.219 66.1982L78.9584 24.815C78.9197 24.7836 78.8953 24.7381 78.8896 24.6885C78.8846 24.6388 78.8989 24.5891 78.9305 24.5502C78.962 24.5113 79.0072 24.4865 79.0567 24.4811C79.1062 24.4758 79.1557 24.4903 79.1951 24.5216L130.455 65.9046C130.474 65.9202 130.49 65.9393 130.502 65.9611C130.514 65.9828 130.522 66.0067 130.524 66.0313C130.527 66.0559 130.525 66.0808 130.517 66.1046C130.511 66.1283 130.499 66.1505 130.484 66.1698C130.468 66.1891 130.449 66.2051 130.427 66.217C130.405 66.2288 130.382 66.2363 130.357 66.2389C130.332 66.2416 130.308 66.2394 130.284 66.2323C130.261 66.2253 130.238 66.2137 130.219 66.1982Z" fill="#CCCCCC"/>
<path d="M127.346 69.7983L75.374 28.4151C75.3346 28.3838 75.3095 28.3383 75.3045 28.2886C75.2987 28.2389 75.3138 28.1891 75.3454 28.1502C75.3769 28.1113 75.4228 28.0864 75.473 28.0811C75.5239 28.0757 75.5741 28.0904 75.6136 28.1217L127.586 69.5048C127.605 69.5203 127.621 69.5395 127.633 69.5612C127.645 69.5829 127.653 69.6068 127.655 69.6314C127.658 69.6559 127.656 69.6809 127.649 69.7046C127.642 69.7284 127.63 69.7505 127.614 69.7698C127.598 69.7891 127.579 69.8051 127.558 69.8169C127.535 69.8288 127.511 69.8362 127.487 69.8389C127.462 69.8416 127.436 69.8393 127.412 69.8324C127.388 69.8254 127.365 69.8138 127.346 69.7983Z" fill="#CCCCCC"/>
<path d="M123.769 73.3982L73.2204 32.0152C73.2017 31.9997 73.1859 31.9805 73.1745 31.9588C73.1623 31.937 73.1551 31.9132 73.1522 31.8886C73.1501 31.864 73.1522 31.8391 73.1587 31.8154C73.1659 31.7916 73.1773 31.7695 73.1924 31.7502C73.2082 31.7309 73.2268 31.7149 73.2483 31.703C73.2691 31.6912 73.2928 31.6837 73.3172 31.6811C73.3416 31.6784 73.366 31.6807 73.3889 31.6876C73.4126 31.6946 73.4341 31.7062 73.4534 31.7217L124.001 73.1045C124.021 73.1203 124.036 73.139 124.048 73.1614C124.06 73.1829 124.067 73.2067 124.069 73.2312C124.072 73.2557 124.07 73.2809 124.064 73.3046C124.056 73.3284 124.045 73.3507 124.03 73.3694C124.014 73.3889 123.995 73.4054 123.974 73.417C123.952 73.4285 123.929 73.4364 123.905 73.4393C123.881 73.4414 123.856 73.4393 123.833 73.4321C123.81 73.4256 123.787 73.4134 123.769 73.3982Z" fill="#CCCCCC"/>
<path d="M139.661 79.2H0.187969C0.138116 79.2 0.0903055 79.1618 0.0550545 79.0949C0.0198036 79.0272 0 78.9357 0 78.84C0 78.7442 0.0198036 78.6528 0.0550545 78.5851C0.0903055 78.5181 0.138116 78.48 0.187969 78.48H139.661C139.71 78.48 139.758 78.5181 139.793 78.5851C139.828 78.6528 139.848 78.7442 139.848 78.84C139.848 78.9357 139.828 79.0272 139.793 79.0949C139.758 79.1618 139.71 79.2 139.661 79.2Z" fill="#CCCCCC"/>
<path d="M27.2306 36.72C27.2306 42.4407 22.3849 47.16 16.3047 47.16C10.2244 47.16 5.37878 42.4407 5.37878 36.72C5.37878 30.9993 10.2244 26.28 16.3047 26.28C22.3849 26.28 27.2306 30.9993 27.2306 36.72Z" stroke="black" stroke-opacity="0.2" stroke-width="3"/>
<path d="M9.1912 5.70643C6.74086 8.52847 4.90311 38.16 4.90311 38.16L6.74156 17.3478L9.1912 5.70643ZM9.1912 5.70643C11.6416 2.88438 11.6413 2.51011 13.7855 1.82611C15.3994 1.3113 16.4598 1.3113 18.0737 1.82611H12.2885L9.1912 5.70643ZM27.875 38.16C27.875 38.16 30.2575 35.6813 32.1631 35.338C32.9903 35.1889 34.3071 35.338 34.3071 35.338" stroke="black" stroke-opacity="0.2" stroke-width="2"/>
<path d="M40.1836 36.72C40.1836 42.4407 45.0292 47.16 51.1095 47.16C57.1897 47.16 62.0354 42.4407 62.0354 36.72C62.0354 30.9993 57.1897 26.28 51.1095 26.28C45.0292 26.28 40.1836 30.9993 40.1836 36.72Z" stroke="black" stroke-opacity="0.2" stroke-width="3"/>
<path d="M39.5391 38.16C39.5391 38.16 37.1566 35.6813 35.2511 35.338C34.4238 35.1889 33.107 35.338 33.107 35.338M62.511 38.16C62.511 38.16 60.6733 8.52847 58.2229 5.70643C55.7726 2.88438 55.7728 2.51011 53.6286 1.82611C52.0147 1.3113 50.9543 1.3113 49.3405 1.82611L55.0705 2.4134L58.9395 7.30435L60.8332 18.7174L62.511 38.16Z" stroke="black" stroke-opacity="0.2" stroke-width="2"/>
<path d="M25.7962 36C25.7962 41.7207 20.9506 46.44 14.8704 46.44C8.7901 46.44 3.94446 41.7207 3.94446 36C3.94446 30.2793 8.7901 25.56 14.8704 25.56C20.9506 25.56 25.7962 30.2793 25.7962 36Z" stroke="#334155" stroke-width="3"/>
<path d="M7.75687 4.98642C5.30653 7.80847 3.46878 37.44 3.46878 37.44L5.16871 17.8043L7.75687 4.98642ZM7.75687 4.98642C10.2072 2.16437 10.207 1.7901 12.3512 1.1061C13.9651 0.591291 15.0255 0.591291 16.6393 1.1061L11.8333 0.456512L7.75687 4.98642ZM26.4407 37.44C26.4407 37.44 28.8232 34.9613 30.7287 34.618C31.556 34.4689 32.8728 34.618 32.8728 34.618" stroke="#334155" stroke-width="2"/>
<path d="M38.7492 36C38.7492 41.7207 43.5948 46.44 49.6751 46.44C55.7553 46.44 60.601 41.7207 60.601 36C60.601 30.2793 55.7553 25.56 49.6751 25.56C43.5948 25.56 38.7492 30.2793 38.7492 36Z" stroke="#334155" stroke-width="3"/>
<path d="M56.7886 4.98642C59.239 7.80847 61.0767 37.44 61.0767 37.44L59.3768 17.8043L56.7886 4.98642ZM56.7886 4.98642C54.3382 2.16437 54.3384 1.7901 52.1942 1.1061C50.5804 0.591291 49.52 0.591291 47.9061 1.1061L52.1942 0.456512L56.7886 4.98642ZM38.1048 37.44C38.1048 37.44 35.7223 34.9613 33.8167 34.618C32.9895 34.4689 31.6727 34.618 31.6727 34.618" stroke="#334155" stroke-width="2"/>
<g filter="url(#filter0_d)">
<path d="M95.0884 92.2952C94.4687 93.9368 93.8061 95.6648 93.1004 97.4792C92.4119 99.2763 91.7234 101.047 91.0349 102.793C90.3636 104.538 89.7268 106.197 89.1244 107.769C88.5219 109.342 88.0142 110.698 87.6011 111.839L83.4186 101.341C83.3669 101.203 83.3239 101.099 83.2895 101.03C83.255 100.961 83.2206 100.857 83.1862 100.719C83.1862 100.788 83.1776 100.857 83.1604 100.927C83.1432 100.978 83.1259 101.039 83.1087 101.108C83.0915 101.177 83.0743 101.246 83.0571 101.315C82.4719 102.663 81.8953 103.985 81.3273 105.281C81.0863 105.834 80.8367 106.404 80.5786 106.992C80.3204 107.579 80.0708 108.167 79.8298 108.754C79.5888 109.325 79.3479 109.878 79.1069 110.413C78.8832 110.949 78.6766 111.433 78.4873 111.865C77.248 108.599 76.0001 105.342 74.7436 102.093C73.4872 98.8443 72.2393 95.5784 71 92.2952H74.1756C74.5887 93.4356 75.0104 94.5848 75.4407 95.7425C75.8882 96.9003 76.3013 98.0148 76.68 99.0862C77.0759 100.158 77.4287 101.151 77.7385 102.067C78.0484 102.983 78.2893 103.76 78.4615 104.4L78.668 105.307C78.6852 105.221 78.7282 105.082 78.7971 104.892C78.8659 104.685 78.9176 104.538 78.952 104.452C78.9692 104.383 79.0295 104.227 79.1327 103.985C79.236 103.743 79.3565 103.458 79.4942 103.13C79.6319 102.784 79.7868 102.413 79.9589 102.015C80.131 101.618 80.3032 101.212 80.4753 100.797C80.8884 99.8465 81.3445 98.7924 81.8436 97.6347C81.551 96.8225 81.2929 96.0622 81.0691 95.3537C80.8625 94.7489 80.6646 94.1528 80.4753 93.5653C80.3032 92.9777 80.1741 92.5544 80.088 92.2952H82.7989C83.539 94.2478 84.2275 96.0536 84.8644 97.7124C85.1226 98.4209 85.3807 99.1294 85.6389 99.8379C85.9143 100.546 86.1639 101.203 86.3876 101.808C86.6286 102.413 86.8352 102.948 87.0073 103.415C87.1794 103.864 87.2999 104.192 87.3687 104.4C87.4204 104.555 87.4548 104.711 87.472 104.866C87.5064 105.005 87.5409 105.151 87.5753 105.307C87.6097 105.151 87.6355 104.996 87.6527 104.84C87.6872 104.685 87.7216 104.538 87.756 104.4C87.9109 103.726 88.1519 102.922 88.4789 101.989C88.8059 101.056 89.1674 100.054 89.5633 98.9825C89.9764 97.9112 90.4067 96.8053 90.8542 95.6648C91.3017 94.507 91.732 93.3838 92.1451 92.2952H95.0884ZM97.5992 92.2174H100.413V111.009H97.5992V92.2174ZM116.114 111.009C115.511 110.232 114.935 109.489 114.384 108.78C113.833 108.072 113.291 107.363 112.757 106.655C112.224 105.946 111.682 105.229 111.131 104.503C110.597 103.778 110.029 103.026 109.427 102.248C109.203 102.49 108.988 102.715 108.781 102.922C108.575 103.112 108.351 103.311 108.11 103.519C108.11 104.849 108.11 106.102 108.11 107.277C108.127 108.435 108.136 109.679 108.136 111.009H105.012V92.2174H108.136V99.2417C108.136 99.3973 108.119 99.5528 108.084 99.7083C108.067 99.8465 108.058 99.9934 108.058 100.149C108.144 100.028 108.231 99.9243 108.317 99.8379C108.403 99.7342 108.489 99.6132 108.575 99.475C109.797 98.3172 110.976 97.1163 112.112 95.8721C113.248 94.6107 114.427 93.3924 115.649 92.2174H119.238C117.947 93.5652 116.664 94.9217 115.391 96.2869C114.134 97.652 112.861 99.0084 111.57 100.356C112.293 101.289 112.981 102.197 113.635 103.078C114.306 103.942 114.96 104.806 115.597 105.67C116.251 106.534 116.905 107.407 117.56 108.288C118.214 109.169 118.893 110.076 119.599 111.009H116.114ZM121.728 92.2174H124.543V111.009H121.728V92.2174Z" fill="#334155"/>
</g>
<g filter="url(#filter1_d)">
<path d="M22.7564 82.1739C22.8339 82.2949 22.9931 82.5282 23.234 82.8738C23.4836 83.2107 23.7676 83.6038 24.086 84.0531C24.4131 84.5024 24.7573 84.9819 25.1188 85.4917C25.4802 85.9928 25.8202 86.468 26.1386 86.9173C26.457 87.3579 26.7324 87.7424 26.9648 88.0707C27.2057 88.399 27.365 88.615 27.4424 88.7187C27.4682 88.6755 27.55 88.5589 27.6877 88.3688C27.8254 88.1787 27.9932 87.9411 28.1911 87.656C28.3977 87.3709 28.63 87.0512 28.8882 86.697C29.1464 86.3341 29.4089 85.9669 29.6757 85.5954C29.9511 85.2152 30.2179 84.8394 30.476 84.4678C30.7428 84.0963 30.9881 83.7594 31.2119 83.457C31.4356 83.1459 31.625 82.8781 31.7799 82.6534C31.9434 82.4202 32.0596 82.2603 32.1284 82.1739V91.9846H30.631V86.7229C30.631 86.6538 30.6353 86.5803 30.6439 86.5026C30.6611 86.4248 30.6697 86.3686 30.6697 86.3341C30.5922 86.4378 30.4674 86.6149 30.2953 86.8654C30.1318 87.1074 29.9382 87.3882 29.7144 87.7078C29.4993 88.0189 29.2712 88.3515 29.0302 88.7058C28.7893 89.0514 28.5612 89.3797 28.346 89.6907C28.1309 90.0018 27.9416 90.2782 27.778 90.5202C27.6145 90.7534 27.5027 90.9176 27.4424 91.0126C27.3822 90.9349 27.2617 90.775 27.081 90.5331C26.9088 90.2826 26.7023 89.9931 26.4613 89.6648C26.229 89.3365 25.9794 88.9866 25.7126 88.615C25.4544 88.2435 25.2134 87.8979 24.9897 87.5782C24.7659 87.2586 24.5723 86.9864 24.4088 86.7618C24.2453 86.5285 24.1506 86.3859 24.1248 86.3341C24.1248 86.3686 24.1291 86.4248 24.1377 86.5026C24.1549 86.5803 24.1635 86.6538 24.1635 86.7229V91.9846H22.7564V82.1739ZM39.9809 91.9846C39.6797 91.5958 39.3914 91.2243 39.116 90.8701C38.8406 90.5158 38.5695 90.1616 38.3028 89.8074C38.036 89.4531 37.7649 89.0946 37.4895 88.7317C37.2227 88.3688 36.9387 87.993 36.6375 87.6042C36.5256 87.7251 36.418 87.8374 36.3148 87.9411C36.2115 88.0362 36.0996 88.1355 35.9791 88.2392C35.9791 88.9045 35.9791 89.5309 35.9791 90.1184C35.9877 90.6973 35.992 91.3194 35.992 91.9846H34.43V82.5886H35.992V86.1008C35.992 86.1786 35.9834 86.2563 35.9662 86.3341C35.9576 86.4032 35.9533 86.4766 35.9533 86.5544C35.9963 86.4939 36.0394 86.4421 36.0824 86.3989C36.1254 86.347 36.1685 86.2866 36.2115 86.2174C36.8225 85.6386 37.412 85.0381 37.98 84.416C38.548 83.7853 39.1375 83.1762 39.7486 82.5886H41.5429C40.8975 83.2626 40.2563 83.9408 39.6195 84.6234C38.9912 85.3059 38.3544 85.9842 37.7089 86.6581C38.0704 87.1246 38.4146 87.5782 38.7417 88.0189C39.0773 88.4509 39.4043 88.8829 39.7228 89.3149C40.0498 89.7469 40.3768 90.1832 40.7038 90.6238C41.0309 91.0645 41.3708 91.5181 41.7237 91.9846H39.9809ZM48.2358 82.5886V83.9365H45.8734V91.9846H44.4663V83.9365H42.1556V82.5886H48.2358ZM49.8466 84.5586L49.2657 84.2346C49.4551 84.0618 49.5885 83.8458 49.6659 83.5866C49.752 83.3187 49.7649 83.0336 49.7046 82.7312L50.4278 82.6405C50.4967 83.0034 50.4795 83.3533 50.3759 83.6902C50.2726 84.0186 50.0962 84.308 49.8466 84.5586ZM54.5487 87.0469L53.9678 87.8245C53.9592 87.8158 53.9291 87.7942 53.8774 87.7597C53.8258 87.7251 53.7569 87.6906 53.6709 87.656C53.5934 87.6214 53.4988 87.5912 53.3869 87.5653C53.2836 87.5307 53.176 87.5134 53.0642 87.5134C52.9179 87.5134 52.7715 87.548 52.6252 87.6171C52.4876 87.6862 52.4187 87.8158 52.4187 88.0059C52.4187 88.1701 52.4746 88.304 52.5865 88.4077C52.707 88.5114 52.8533 88.6064 53.0254 88.6928C53.1976 88.7706 53.3826 88.8526 53.5805 88.939C53.7871 89.0254 53.9764 89.1334 54.1485 89.263C54.3206 89.384 54.4626 89.5395 54.5745 89.7296C54.695 89.911 54.7552 90.1443 54.7552 90.4294C54.7552 90.9133 54.5874 91.315 54.2518 91.6347C53.9248 91.9458 53.4729 92.1013 52.8963 92.1013C52.5607 92.1013 52.2294 92.0451 51.9023 91.9328C51.5839 91.8118 51.3257 91.639 51.1278 91.4144C51.188 91.3539 51.2526 91.2762 51.3214 91.1811C51.3989 91.0861 51.472 90.9954 51.5409 90.909C51.6183 90.8226 51.6786 90.7534 51.7216 90.7016C51.7733 90.6411 51.8034 90.6109 51.812 90.6109C51.812 90.6195 51.8421 90.6454 51.9023 90.6886C51.9712 90.7318 52.0573 90.7794 52.1605 90.8312C52.2638 90.8744 52.38 90.9176 52.5091 90.9608C52.6382 90.9954 52.7673 91.0126 52.8963 91.0126C53.1029 91.0126 53.2793 90.9608 53.4256 90.8571C53.5719 90.7534 53.6451 90.6152 53.6451 90.4424C53.6451 90.2869 53.5848 90.1659 53.4643 90.0795C53.3525 89.9845 53.2105 89.8981 53.0383 89.8203C52.8662 89.7426 52.6769 89.6648 52.4703 89.587C52.2638 89.5006 52.0745 89.3926 51.9023 89.263C51.7302 89.1334 51.5839 88.9736 51.4634 88.7835C51.3516 88.5848 51.2956 88.3299 51.2956 88.0189C51.2956 87.7251 51.3472 87.4789 51.4505 87.2802C51.5624 87.0814 51.7001 86.9216 51.8636 86.8006C52.0357 86.671 52.2251 86.5803 52.4316 86.5285C52.6382 86.468 52.8361 86.4378 53.0254 86.4378C53.275 86.4378 53.5418 86.4896 53.8258 86.5933C54.1098 86.697 54.3508 86.8482 54.5487 87.0469Z" fill="#334155"/>
</g>
</g>
<defs>
<filter id="filter0_d" x="67" y="92.2174" width="61.5426" height="27.6474" filterUnits="userSpaceOnUse" color-interpolation-filters="sRGB">
<feFlood flood-opacity="0" result="BackgroundImageFix"/>
<feColorMatrix in="SourceAlpha" type="matrix" values="0 0 0 0 0 0 0 0 0 0 0 0 0 0 0 0 0 0 127 0"/>
<feOffset dy="4"/>
<feGaussianBlur stdDeviation="2"/>
<feColorMatrix type="matrix" values="0 0 0 0 0 0 0 0 0 0 0 0 0 0 0 0 0 0 0.25 0"/>
<feBlend mode="normal" in2="BackgroundImageFix" result="effect1_dropShadow"/>
<feBlend mode="normal" in="SourceGraphic" in2="effect1_dropShadow" result="shape"/>
</filter>
<filter id="filter1_d" x="18.7564" y="82.1739" width="39.9988" height="17.9274" filterUnits="userSpaceOnUse" color-interpolation-filters="sRGB">
<feFlood flood-opacity="0" result="BackgroundImageFix"/>
<feColorMatrix in="SourceAlpha" type="matrix" values="0 0 0 0 0 0 0 0 0 0 0 0 0 0 0 0 0 0 127 0"/>
<feOffset dy="4"/>
<feGaussianBlur stdDeviation="2"/>
<feColorMatrix type="matrix" values="0 0 0 0 0 0 0 0 0 0 0 0 0 0 0 0 0 0 0.25 0"/>
<feBlend mode="normal" in2="BackgroundImageFix" result="effect1_dropShadow"/>
<feBlend mode="normal" in="SourceGraphic" in2="effect1_dropShadow" result="shape"/>
</filter>
<clipPath id="clip0">
<rect width="142" height="126" fill="white"/>
</clipPath>
</defs>
</svg>
